<svg width="145" height="145" viewBox="0 0 145 145" fill="none" xmlns="http://www.w3.org/2000/svg">
    <path
        d="M120.616 106.314C117.643 101.245 111.172 98.3423 102.845 98.3423C98.7673 98.3423 92.5085 99.6167 90.2853 100.296C90.1437 99.3618 90.2004 98.3848 90.5119 97.436C90.965 96.02 91.8854 94.8872 93.0466 94.1509L92.9899 94.1792C100.311 88.855 105.847 81.1802 108.509 72.1743C111.568 61.8232 109.911 50.5659 103.865 40.4839L89.2941 16.2842C85.8532 10.4502 78.32 7.1084 68.592 7.1084C61.5261 7.1084 53.6672 8.90674 46.4738 12.1919C35.0749 17.3604 26.7063 25.4033 24.0725 33.7153C23.1096 36.7314 22.9538 39.6626 23.6052 42.3672L29.7507 71.2256C31.0534 77.3003 33.8005 82.8652 37.9211 87.7646C42.7214 93.457 49.0368 97.6909 56.2019 100.027C60.3225 101.373 64.613 102.052 68.9035 102.052C71.2966 102.052 73.6896 101.84 76.0544 101.415C77.1164 101.273 78.7448 101.259 80.0617 101.939C80.883 102.364 81.5627 102.958 82.0725 103.638C74.2561 108.254 67.2609 114.315 65.1652 120.928C63.9191 124.864 64.2448 128.645 66.1281 131.859C69.1018 136.929 75.573 139.832 83.8991 139.832C89.9597 139.832 96.4167 138.345 102.591 135.555C112.234 131.166 119.342 124.326 121.579 117.246C122.825 113.31 122.5 109.529 120.616 106.314ZM102.421 67.105C101.599 67.5156 100.792 67.9546 99.9143 68.4077C96.1618 70.4043 91.8996 72.6699 87.0852 73.5479C84.069 74.1001 80.6848 73.9302 77.0881 73.7603C74.7233 73.647 72.2878 73.5337 69.8239 73.6187C67.3459 73.6895 64.8962 73.9727 62.5315 74.2559C58.9773 74.6665 55.6213 75.0488 52.5627 74.7373C48.1164 74.27 44.0949 72.6699 40.215 71.1265C38.9831 70.6309 37.8078 70.1636 36.6467 69.7529V69.7246L33.0925 53.0298C36.6325 54.6157 40.9797 55.4653 45.8791 55.4653H46.403L51.2741 71.3813C51.5007 72.1318 52.2087 72.6274 52.9592 72.6274C53.1291 72.6274 53.299 72.5991 53.4831 72.5566C54.4177 72.2734 54.9416 71.2822 54.6584 70.3477L50.0422 55.2671C55.947 54.7148 62.1916 53.0298 67.9973 50.3818C78.5324 45.5957 86.4904 38.3599 89.7048 30.7275L97.7619 44.1372C102.18 51.5005 103.794 59.5435 102.421 67.105ZM30.8127 35.8535C32.8234 29.5239 39.9318 22.9253 49.3908 18.6348C55.6921 15.7603 62.5173 14.1885 68.592 14.1885C75.6579 14.1885 81.1096 16.3125 83.2053 19.895C83.2053 19.9092 83.2194 19.9092 83.2194 19.9233L83.2336 19.9517C84.3381 21.8633 84.4655 24.1431 83.6584 26.7202C81.6477 33.0498 74.5393 39.6484 65.0803 43.939C58.779 46.8135 51.9538 48.3853 45.8791 48.3853C38.8274 48.3853 33.3615 46.2471 31.2658 42.6787C30.133 40.7529 29.9914 38.459 30.8127 35.8535ZM76.55 94.0659C72.9392 94.9014 69.2717 95.1279 65.675 94.7739C65.3493 94.519 65.0378 94.2358 64.7121 93.9243C62.5881 91.8286 60.6765 88.7134 59.0197 84.6353C58.6516 83.729 57.6179 83.29 56.7116 83.6582C55.8054 84.0264 55.3664 85.0601 55.7346 85.9663C56.9807 89.0107 58.3825 91.6021 59.926 93.7119C53.5256 91.9561 47.6633 88.3311 43.3161 83.1768C42.1125 81.7466 41.0505 80.2598 40.1442 78.7021C43.6276 80.0474 47.4934 81.3218 51.8405 81.7749C52.8742 81.8882 53.9221 81.9307 54.9699 81.9307C57.7736 81.9307 60.6057 81.605 63.3669 81.2934C65.6892 81.0244 67.884 80.7695 70.0647 80.6987C72.2312 80.6279 74.5251 80.7412 76.7482 80.8403C80.5715 81.0244 84.5363 81.2227 88.3454 80.5288C92.2819 79.8066 95.8078 78.3906 98.9089 76.9038C94.2644 85.4849 86.1647 91.8145 76.55 94.0659ZM114.825 115.108C113.196 120.234 107.391 125.586 99.6594 129.098C94.4768 131.449 88.8835 132.751 83.8991 132.751C78.2351 132.751 73.8737 131.081 72.2312 128.291C71.3815 126.833 71.2683 125.077 71.9055 123.08C73.364 118.464 78.2492 113.649 84.862 110.166L87.5949 117.104C88.2604 118.775 89.8605 119.795 91.5456 119.795C92.0695 119.795 92.5935 119.696 93.1032 119.498C95.2839 118.634 96.3601 116.17 95.4963 113.989L92.7492 106.966C96.1901 105.96 99.6311 105.422 102.845 105.422C108.509 105.422 112.871 107.093 114.513 109.883C115.363 111.355 115.462 113.097 114.825 115.108Z"
        fill="#F3F3F3" />
</svg>