<svg width="96" height="96" viewBox="0 0 96 96" fill="none" xmlns="http://www.w3.org/2000/svg">
<path d="M36 68C39.4 65.48 43.54 64 48 64C52.46 64 56.6 65.48 60 68" stroke="#D98696" stroke-width="6" stroke-linecap="round"/>
<path d="M60 48C62.2092 48 64 45.3137 64 42C64 38.6863 62.2092 36 60 36C57.7909 36 56 38.6863 56 42C56 45.3137 57.7909 48 60 48Z" fill="#D98696"/>
<path d="M36 48C38.2092 48 40 45.3137 40 42C40 38.6863 38.2092 36 36 36C33.7909 36 32 38.6863 32 42C32 45.3137 33.7909 48 36 48Z" fill="#D98696"/>
<path d="M8.00002 48C8.00002 29.144 8.00002 19.716 13.856 13.856C19.72 8 29.144 8 48 8C66.856 8 76.284 8 82.14 13.856C88 19.72 88 29.144 88 48C88 66.856 88 76.284 82.14 82.14C76.288 88 66.856 88 48 88C29.144 88 19.716 88 13.856 82.14C8.00002 76.288 8.00002 66.856 8.00002 48Z" stroke="#D98696" stroke-width="6"/>
</svg>
