<svg width="35" height="35" viewBox="0 0 35 35" fill="none" xmlns="http://www.w3.org/2000/svg">
    <path
        d="M8.98576 23.8134C8.52433 24.2748 8.50236 25.0988 8.99675 25.5822C9.48014 26.0656 10.3041 26.0546 10.7655 25.5932L17.4892 18.8586L24.2238 25.5932C24.6962 26.0656 25.5092 26.0656 25.9926 25.5822C26.465 25.0878 26.476 24.2858 25.9926 23.8134L19.269 17.0788L25.9926 10.3551C26.476 9.88273 26.476 9.06974 25.9926 8.58635C25.4982 8.11393 24.6962 8.10295 24.2238 8.57536L17.4892 15.31L10.7655 8.57536C10.3041 8.11393 9.46916 8.09196 8.99675 8.58635C8.51335 9.06974 8.52433 9.89372 8.98576 10.3551L15.7204 17.0788L8.98576 23.8134Z"
        fill="#F3F3F3" />
</svg>